<?xml version="1.0" encoding="utf-8"?>
<!-- Generator: Adobe Illustrator 27.3.1, SVG Export Plug-In . SVG Version: 6.00 Build 0)  -->
<svg version="1.1" id="SE_Logo_with_White_Outline" xmlns="http://www.w3.org/2000/svg" xmlns:xlink="http://www.w3.org/1999/xlink"
	 x="0px" y="0px" viewBox="0 0 595.3 477.5" style="enable-background:new 0 0 595.3 477.5;" xml:space="preserve">
<style type="text/css">
	.st0{fill:#FFFFFF;}
	.st1{fill:url(#Fitting_shape_with_Gradient_00000026856776514548866710000009279664009028853930_);}
	.st2{fill-rule:evenodd;clip-rule:evenodd;fill:#FFFFFF;}
	.st3{fill:#FFCC00;}
</style>
<g>
	<path id="SE_Logo_White_Outline" class="st0" d="M189.7,14.2c-7,0-13.3,1.7-18.2,5.3c-4.9,3.7-7.9,9.6-7.9,16
		c0,4.1,1.3,7.8,3.3,10.6c0,0,0,0,0,0.1l-5.7,11.5c-1.3,2.7-0.6,5.9,1.8,7.7c7.6,5.8,17.5,8.7,27,8.7c6.1,0,12.2-1.2,17.2-4.7
		c5-3.4,8.6-9.5,8.6-16.5c0-5.5-2.3-10.4-5.5-13.5l0-0.1c0.1,0,0.1,0,0.2,0h6.9v28c0,3.5,2.8,6.2,6.3,6.2H239c3.5,0,6.2-2.8,6.2-6.2
		v-28h4.3v28c0,3.5,2.8,6.2,6.2,6.2h15.3c2.4,0,4.6-1.4,5.7-3.6c1,2.2,3.2,3.6,5.7,3.6h17.3c0.4,0,0.8,0,1.2-0.1
		c0.4,0.1,0.8,0.1,1.2,0.1h39.8c0.4,0,0.9,0,1.3-0.1c0.4,0.1,0.8,0.1,1.3,0.1h39.8c3.5,0,6.2-2.8,6.3-6.2V55.8
		c0-2.1-1.1-4.1-2.8-5.2c0-0.2,0-0.4,0-0.5V39.4h6.2v28c0,3.5,2.8,6.2,6.2,6.2h15.3c3.5,0,6.2-2.8,6.2-6.2v-28h7
		c3.5,0,6.2-2.8,6.2-6.2V21.1c0-3.5-2.8-6.2-6.2-6.2h-41.7c-0.6,0-1.1,0.1-1.7,0.2c-0.6-0.2-1.1-0.2-1.7-0.2h-39.2
		c-0.5,0-1.1,0.1-1.6,0.2c-0.5-0.1-1-0.2-1.6-0.2h-39.2c-3,0-5.6,2.2-6.2,5.2c-4.7-3.6-10.9-5.2-17.7-5.2h-22.4
		c-0.6,0-1.2,0.1-1.8,0.3c-0.6-0.2-1.2-0.3-1.8-0.3h-41.7c-1.9,0-3.6,0.8-4.8,2.3C200.7,15.3,195.3,14.2,189.7,14.2L189.7,14.2z
		 M213.1,79.8c-54.3,0-103.5,15-139.6,39.8c-36.1,24.8-59.3,59.8-59.3,99c0,0,0,0,0,0c0.1,35,19.2,68.2,52,93.3
		C52,328,36.2,342.2,23.6,350.1c-2.7,1.7-4,5-3.2,8.1l7,26.3c0.9,3.2,3.7,5.4,7,5.4c40.7,0.2,90.1-10.9,139.1-35.5
		c13,1.9,26.2,2.9,39.4,3c0,0,0,0,0,0c14.4,0,28.5-1.1,42-3.2v3.4c0,1.3,0.4,2.6,1,3.7c-0.8,1.4-1.1,3-0.9,4.5
		c0.4,3.2,2,6.3,4.2,8.8c2.6,2.9,5.9,5.1,9.8,6.9c0.4,0.2,0.8,0.3,1.2,0.5c2.6,3.9,5.7,7.3,9.4,9.9c0,0,0,0,0,0
		c10.8,7.6,25,7.6,35.8,0l0,0c3.7-2.6,6.9-6,9.5-9.9c0.4-0.2,0.8-0.3,1.2-0.5c3.9-1.8,7.2-4,9.8-6.9c2.4-2.7,4.2-6.2,4.4-10
		c0-0.1,0-0.2,0-0.3v-6.1c0-1.3-0.3-2.5-1-3.7c0.1-0.2,0.2-0.3,0.3-0.5c13.7,2.1,27.9,3.2,42.5,3.2c0,0,0,0,0,0
		c13.3-0.1,26.5-1.1,39.4-3c49,24.6,98.3,35.7,139.1,35.5c3.3,0,6.2-2.2,7-5.4l7-26.3c0.8-3.1-0.5-6.4-3.2-8.1
		c-12.6-7.9-28.4-22.1-42.5-38.2c32.8-25.1,51.8-58.3,52-93.3c0,0,0,0,0,0c0-39.2-23.2-74.2-59.3-99
		c-36.1-24.8-85.3-39.8-139.6-39.8h0c-30.2,0-58.9,4.7-84.6,13.1C271.9,84.5,243.3,79.8,213.1,79.8L213.1,79.8z M161.3,403.2
		c-7,0-13.3,1.7-18.2,5.3c-0.8,0.6-1.5,1.4-2.3,2.2v-0.6c0-3.5-2.8-6.2-6.2-6.2h-15.3c-2.7,0-5.2,1.8-6,4.4c-4.4-3-9.9-4.4-16-4.4
		H75.6c-0.5,0-1.1,0.1-1.6,0.2c-0.5-0.1-1-0.2-1.6-0.2H33.2c-3.5,0-6.2,2.8-6.3,6.2v46.3c0,3.5,2.8,6.2,6.3,6.2H73
		c0.4,0,0.9,0,1.3-0.1c0.4,0.1,0.8,0.1,1.3,0.1h15.3c3.5,0,6.2-2.8,6.2-6.2v-5.8h0.2c5.9,0,11.4-1.5,15.7-4.4v10.2
		c0,3.5,2.8,6.2,6.2,6.2h15.3c2.8,0,5.2-1.8,6-4.5c6.5,3.3,13.9,5,21,5c6.1,0,12.2-1.2,17.2-4.7c5-3.4,8.6-9.5,8.6-16.5
		c0-5.5-2.3-10.4-5.5-13.5l0-0.1c0.1,0,0.1,0,0.2,0h6.9v28c0,3.5,2.8,6.2,6.2,6.2h15.3c3.5,0,6.2-2.8,6.2-6.2v-28h4.3v28
		c0,3.5,2.8,6.2,6.2,6.2h39.8c0.4,0,0.9,0,1.3-0.1c0.4,0.1,0.8,0.1,1.3,0.1h13.4c2.9,0,5.4-2,6.1-4.8c0.6,0.2,1.2,0.3,1.9,0.3h10
		c0.6,0,1.3-0.1,1.9-0.3c0.7,2.8,3.2,4.8,6.1,4.8h13.4c3.5,0,6.2-2.8,6.2-6.2v-2.1c5.8,5.6,13.8,9,22.7,9c9,0,17-3.4,22.7-9v2.1
		c0,3.5,2.8,6.2,6.2,6.2H415c3.2,0,5.8-2.4,6.2-5.6c5.3,3.9,12,6.2,19.3,6.2c11.1,0,20.8-5.2,26.4-13.3c5.6,8.1,15.2,13.3,26.2,13.3
		c8.2,0,17.1-2.6,23.8-7c1.7-1.2,2.8-3.1,2.8-5.2v-15.9l4.5,8.7v12.5c0,3.5,2.8,6.2,6.2,6.2h15.3c3.5,0,6.2-2.8,6.2-6.2v-12.9
		l15.9-30.6c2.2-4.2-0.9-9.1-5.5-9.1h-15.3c-2.4,0-4.5,1.3-5.6,3.4l-3.5,7l-3.7-7c-1.1-2.1-3.2-3.4-5.5-3.4h-15.3
		c-1.9,0-3.8,0.9-5,2.5c-4.6-1.9-9.5-2.9-14.5-2.9c-11.4,0-21.3,5.2-27.1,13.4c-5.7-8.1-15.4-13.4-26.5-13.4
		c-17.5,0-31.7,12.9-31.7,29.9c0,1.4,0.2,2.8,0.4,4.2H402v-27.3c0-3.5-2.8-6.2-6.2-6.2h-15.3c-3.5,0-6.2,2.8-6.2,6.2v2.2
		c-5.8-5.5-13.8-8.9-22.7-8.9c-8.9,0-17,3.4-22.7,8.9v-2.2c0-3.5-2.8-6.2-6.2-6.2h-16.2c-2.5,0-4.8,1.5-5.8,3.8l-4.3,10.4l-4.3-10.4
		c-1-2.3-3.2-3.8-5.8-3.8h-16.2c-0.5,0-1.1,0.1-1.6,0.2c-0.5-0.1-1-0.2-1.6-0.2h-39.2c-0.6,0-1.2,0.1-1.8,0.3
		c-0.6-0.2-1.2-0.3-1.8-0.3h-41.7c-1.9,0-3.6,0.8-4.8,2.3C172.4,404.3,166.9,403.2,161.3,403.2L161.3,403.2z M514.8,425.9
		L514.8,425.9C514.8,426,514.7,425.9,514.8,425.9L514.8,425.9L514.8,425.9z"/>
	<g id="Text">
		<polygon id="Y" points="547.1,442 563.7,410.1 548.5,410.1 539.5,428 530.2,410.1 514.9,410.1 531.8,442.4 531.8,456.4 
			547.1,456.4 547.1,442 		"/>
		<path id="G" d="M501.3,432.1v10.8c-2.2,0.9-4.5,1.5-6.1,1.5c-6,0-10.5-4.6-10.5-11c0-6.3,4.4-10.9,10.3-10.9
			c3.8,0,8.3,1.9,11.4,4.9l8.7-10.5c-5-4.4-12.8-7.1-20-7.1c-15.1,0-26.1,10-26.1,23.7c0,13.8,10.6,23.8,25.1,23.8
			c6.6,0,15.1-2.5,20.3-5.9v-19.1H501.3L501.3,432.1z"/>
		<path id="O_00000125564420447592526150000008262637039293529522_" d="M441.6,409.6c-14.7,0-25.4,9.8-25.4,23.6
			c0,13.8,10.7,23.9,25.4,23.9c14.7,0,25.4-10.1,25.4-23.9C467,419.6,456.3,409.6,441.6,409.6L441.6,409.6z M441.8,422.4
			c5.3,0,9.5,4.6,9.5,10.9c0,6.3-4.2,11-9.5,11c-5.3,0-9.9-4.7-9.9-11C431.9,427,436.4,422.4,441.8,422.4L441.8,422.4z"/>
		<polygon id="L" points="396.5,443.7 396.5,410.1 381.1,410.1 381.1,456.4 415.8,456.4 415.8,443.7 396.5,443.7 		"/>
		<path id="O" d="M352,409.6c-14.7,0-25.4,9.8-25.4,23.6c0,13.8,10.7,23.9,25.4,23.9c14.7,0,25.4-10.1,25.4-23.9
			C377.5,419.6,366.8,409.6,352,409.6L352,409.6z M352.2,422.4c5.3,0,9.5,4.6,9.5,10.9c0,6.3-4.2,11-9.5,11s-9.9-4.7-9.9-11
			C342.3,427,346.9,422.4,352.2,422.4L352.2,422.4z"/>
		<polygon id="M" points="322.9,456.4 322.9,410.1 306.7,410.1 296.6,434.3 286.5,410.1 270.3,410.1 270.3,456.4 283.6,456.4 
			283.6,431.1 291.6,451.9 301.6,451.9 309.6,431.1 309.6,456.4 322.9,456.4 		"/>
		<polygon id="E_00000076571891585868982720000004230344700060315835_" points="266.4,421.7 266.4,410.1 227.2,410.1 227.2,456.4 
			267,456.4 267,444.8 242.5,444.8 242.5,439.1 264.2,439.1 264.2,427.4 242.5,427.4 242.5,421.7 266.4,421.7 		"/>
		<polygon id="T_00000098906973889467428720000018093379629214166966_" points="223.6,422.2 223.6,410.1 181.9,410.1 181.9,422.2 
			195,422.2 195,456.4 210.3,456.4 210.3,422.2 223.6,422.2 		"/>
		<path id="S_00000032615101729741917740000015746567330831768453_" d="M161,409.4c-12,0-19.8,5.8-19.8,15.1c0,16.3,24,12.3,24,18.3
			c0,1.7-1.5,2.4-3.7,2.4c-4.7,0-12.9-3.2-17.6-7.2l-5.7,11.5c6.1,4.7,15.1,7.4,23.2,7.4c10.4,0,19.5-4.6,19.5-14.9
			c0-16.8-24-13.2-24-19c0-1.4,1.1-1.9,2.8-1.9c4,0,11.2,2.8,15.9,5.4l5.6-11.6C176,411.6,168.4,409.4,161,409.4L161,409.4z"/>
		<polygon id="I" points="134.3,456.4 134.3,410.1 119,410.1 119,456.4 134.3,456.4 		"/>
		<path id="P" d="M74.9,410.1v46.3h15.3v-12h6.4c12,0,19-6.5,19-17.7c0-10.6-6.9-16.6-19-16.6H74.9L74.9,410.1z M90.2,421.7h5.6
			c3.3,0,5.2,2,5.2,5.4c0,3.6-1.9,5.6-5.2,5.6h-5.6V421.7L90.2,421.7z"/>
		<polygon id="E_00000124141423264362967430000015536060198754184327_" points="71,421.7 71,410.1 31.9,410.1 31.9,456.4 
			71.6,456.4 71.6,444.8 47.2,444.8 47.2,439.1 68.9,439.1 68.9,427.4 47.2,427.4 47.2,421.7 71,421.7 		"/>
		<polygon id="T_00000163038433563161688500000017177407616859846835_" points="429.3,33.2 429.3,21.1 387.6,21.1 387.6,33.2 
			400.8,33.2 400.8,67.4 416.1,67.4 416.1,33.2 429.3,33.2 		"/>
		<polygon id="E_00000121245888600256636130000003549750110893627009_" points="384.2,32.7 384.2,21.1 345,21.1 345,67.4 
			384.8,67.4 384.8,55.8 360.3,55.8 360.3,50 382,50 382,38.4 360.3,38.4 360.3,32.7 384.2,32.7 		"/>
		<polygon id="E" points="341.1,32.7 341.1,21.1 301.9,21.1 301.9,67.4 341.7,67.4 341.7,55.8 317.3,55.8 317.3,50 338.9,50 
			338.9,38.4 317.3,38.4 317.3,32.7 341.1,32.7 		"/>
		<path id="R" d="M281.9,67.4h17.3l-9.1-15.1c4.8-2.9,7.3-7.9,7.3-14.7c0-10.6-7.2-16.6-19.8-16.6h-22.4v46.3h15.3v-12h5.8
			L281.9,67.4L281.9,67.4z M270.6,43.8v-11h7.1c3.3,0,5.2,2,5.2,5.4c0,3.6-1.9,5.6-5.2,5.6H270.6L270.6,43.8z"/>
		<polygon id="T" points="251.6,33.2 251.6,21.1 209.9,21.1 209.9,33.2 223.1,33.2 223.1,67.4 238.4,67.4 238.4,33.2 251.6,33.2 		
			"/>
		<path id="S" d="M189.1,20.4c-12,0-19.8,5.8-19.8,15.1c0,16.3,24,12.3,24,18.3c0,1.7-1.5,2.4-3.7,2.4c-4.7,0-12.9-3.2-17.6-7.2
			l-5.7,11.5c6.1,4.7,15.1,7.4,23.2,7.4c10.4,0,19.5-4.6,19.5-14.9c0-16.8-24-13.2-24-19c0-1.4,1.1-1.9,2.8-1.9
			c4,0,11.2,2.8,15.9,5.4l5.6-11.6C204,22.6,196.4,20.4,189.1,20.4L189.1,20.4z"/>
	</g>
	<path id="Speech_Bubbles" d="M518.4,310.9c0.1,0,0.1-0.1,0.2-0.1l-0.1-0.1c35.3-24.5,55.2-57.6,55.3-92.1
		c0-72.6-85.8-131.5-191.6-131.5c-30.4,0-59.1,4.9-84.6,13.5c-25.5-8.6-54.2-13.5-84.6-13.5C107.3,87.1,21.5,146,21.5,218.6
		c0.1,34.5,20,67.5,55.3,92.1l-0.1,0.1c0.1,0,0.1,0.1,0.2,0.1c-15.7,19-34.2,35.9-49.3,45.4l7,26.3c39.9,0.2,89.1-10.8,137.8-35.7
		c13.4,2.1,27,3.1,40.7,3.2c30.4,0,59.1-4.9,84.6-13.5c25.5,8.6,54.2,13.5,84.6,13.5c13.7-0.1,27.4-1.1,40.7-3.2
		c48.7,24.8,97.9,35.9,137.8,35.7l7-26.3C552.6,346.8,534.1,329.9,518.4,310.9z M213.1,325.3c-16.6-0.7-30.1-1.4-44.7-3.9
		c-32.5,18.9-67.4,28.4-98.7,33.4c17.9-17,29.6-31.7,43.4-50.4c-36.3-16.7-65.5-53.6-66.4-85.7c0-58.9,74.5-106.7,166.4-106.7
		c16.8,0,33.1,1.6,48.4,4.6c-43.2,24.1-70.8,60.9-70.8,102.1c0,41.2,27.6,78,70.8,102.1C246.2,323.7,229.9,325.3,213.1,325.3z
		 M426.9,321.4c-14.6,2.5-28.1,3.2-44.7,3.9c-16.8,0-33.1-1.6-48.4-4.6c43.2-24.1,70.8-60.9,70.8-102.1c0-41.2-27.6-78-70.8-102.1
		c15.3-3,31.6-4.6,48.4-4.6c91.9,0,166.4,47.8,166.4,106.7c-0.9,32.2-30.1,69-66.4,85.7c13.7,18.7,25.4,33.4,43.4,50.4
		C494.3,349.7,459.4,340.2,426.9,321.4z"/>
	<g id="Bulb_Fitting">
		
			<linearGradient id="Fitting_shape_with_Gradient_00000128483609224255273830000015874372426526862000_" gradientUnits="userSpaceOnUse" x1="297.7947" y1="390.4882" x2="297.7947" y2="318.2673">
			<stop  offset="0" style="stop-color:#4D4D4D"/>
			<stop  offset="1" style="stop-color:#000000"/>
		</linearGradient>
		
			<path id="Fitting_shape_with_Gradient" style="fill:url(#Fitting_shape_with_Gradient_00000128483609224255273830000015874372426526862000_);" d="
			M262.4,318.3v13.8l1.7,1.8c1.8,1.8,0.8,5.1-1.7,5.6v5.5l1.7,1.8c1.8,1.8,0.8,5.1-1.7,5.6v5.5l1.7,1.8c1.8,1.8,0.8,5-1.6,5.5
			c0.2,1.6,1,3.2,2.4,4.8c1.7,1.9,4.2,3.7,7.5,5.2c0.9,0.4,2,0.9,3,1.3c2.3,4,5.3,7.3,8.7,9.8c8.5,5.9,18.9,5.9,27.4,0
			c3.5-2.4,6.5-5.8,8.8-9.8c1-0.4,2.1-0.8,3-1.2c3.2-1.5,5.8-3.3,7.5-5.2c1.6-1.8,2.4-3.6,2.5-5.4v-6.1c-2.5-0.2-3.5-3.4-1.7-5.4
			l1.7-1.9v-5.5c-2.5-0.2-3.5-3.4-1.7-5.4l1.7-1.9v-5.5c-2.5-0.2-3.5-3.4-1.7-5.4l1.7-1.9v-7.2C331.1,320.6,263.8,320.1,262.4,318.3
			L262.4,318.3z"/>
		<path id="Lines" class="st2" d="M325.9,322.9c-20.2,10-39.9,6.6-56,3l-1,3.1C289,333.4,310.4,333.8,325.9,322.9L325.9,322.9z
			 M325.9,335.3c-20.2,10-39.9,6.6-56,3l-1,3.1C289,345.8,310.4,346.2,325.9,335.3L325.9,335.3z M325.9,347.7
			c-20.2,10-39.9,6.6-56,3l-1,3.1C289,358.2,310.4,358.6,325.9,347.7L325.9,347.7z M325.9,360.1c-20.2,10-39.9,6.6-56,3l-1,3.1
			C289,370.6,310.4,371,325.9,360.1L325.9,360.1z"/>
	</g>
	<path id="Yellow_circle" class="st3" d="M297.5,134.8c-46.1,0-83.5,37.4-83.5,83.5c0,46.1,37.4,83.5,83.5,83.5
		c46.1,0,83.5-37.4,83.5-83.5C381,172.2,343.6,134.8,297.5,134.8L297.5,134.8z"/>
	<path id="Question_Mark" d="M297.7,158.5c-6,0-11.8,1.4-17.4,4.2c-5.6,2.8-10.1,6.6-13.6,11.4c-4.7,6.5-7.1,14.9-7.1,25.2h29.2
		c0-7.7,2.8-11.5,8.3-11.5c2,0,3.8,0.7,5.2,2.1c1.4,1.4,2.1,3.1,2.1,5.2c0,3.5-2.2,6.2-6.5,8.1l-5.8,2.5c-4.2,1.9-7.1,4.5-8.6,7.9
		c-1.6,3.3-2.4,8.5-2.4,15.6v5.3c11.4-4.2,21.8-3.7,31.4,0c0-4.1,0.4-6.7,1.1-8c0.7-1.2,2.8-2.7,6.2-4.4c10.4-5.2,15.6-14.2,15.6-27
		c0-10.4-3.6-19.1-10.9-26.1C317.2,162.1,308.3,158.5,297.7,158.5L297.7,158.5z M297.4,237.8c-5.5,0-10.2,2-14.1,5.9
		c-3.9,3.9-5.8,8.7-5.8,14.3c0,5.8,1.9,10.6,5.6,14.4c3.8,3.7,8.6,5.6,14.4,5.6c5.6,0,10.4-1.9,14.3-5.8c4-3.9,5.9-8.6,5.9-14.1
		c0-5.5-2-10.3-6-14.3C307.6,239.8,302.9,237.8,297.4,237.8L297.4,237.8z"/>
</g>
</svg>
