<?xml version="1.0" encoding="UTF-8" standalone="no"?>
<svg
   width="50mm"
   height="50mm"
   version="1.1"
   viewBox="0 0 50 50"
   id="svg28"
   sodipodi:docname="wtf.svg"
   inkscape:version="1.1.2 (0a00cf5339, 2022-02-04)"
   xmlns:inkscape="http://www.inkscape.org/namespaces/inkscape"
   xmlns:sodipodi="http://sodipodi.sourceforge.net/DTD/sodipodi-0.dtd"
   xmlns="http://www.w3.org/2000/svg"
   xmlns:svg="http://www.w3.org/2000/svg">
  <defs
     id="defs32" />
  <sodipodi:namedview
     id="namedview30"
     pagecolor="#ffffff"
     bordercolor="#666666"
     borderopacity="1.0"
     inkscape:pageshadow="2"
     inkscape:pageopacity="0.0"
     inkscape:pagecheckerboard="0"
     inkscape:document-units="mm"
     showgrid="false"
     inkscape:zoom="6.6664656"
     inkscape:cx="31.125939"
     inkscape:cy="68.777074"
     inkscape:window-width="3840"
     inkscape:window-height="2111"
     inkscape:window-x="0"
     inkscape:window-y="25"
     inkscape:window-maximized="1"
     inkscape:current-layer="g26" />
  <g
     transform="translate(-5.0500002,-96.790001)"
     id="g26">
    <rect
       x="5.0500002"
       y="96.790001"
       width="50"
       height="50"
       ry="3.24"
       fill-rule="evenodd"
       style="paint-order:fill markers stroke"
       id="rect2" />
    <ellipse
       transform="rotate(-20)"
       fill="#4d4d4d"
       fill-rule="evenodd"
       stroke-width="6.293"
       id="ellipse4"
       ry="19"
       rx="32.778679"
       cy="114.7"
       cx="-14.47" />
    <g
       transform="translate(-99.37,12.349167)"
       id="g8">
      <path
         d="m 104.8,112.9 c -0.771,-4.077 -0.0232,-9.394 1.84,-13.08 96.07,-34.8 9.451,69.84 -1.84,13.08 z m 8.949,-20.81 c -4.059,2.751 -7.038,7.03 -8.443,12.13 -10.79,54.57 87.73,-45.03 8.443,-12.13 z m -6.807,17.21 c -8.984,-22.69 -4.492,-11.35 0,0 z m 1.584,-0.254 c 0,-6.27 3.112,-11.73 8.447,-14.83 0.9646,-0.56 1.84,-1.275 2.022,-1.651 0.3329,-0.6884 0.28,-0.6786 2.848,-0.5285 0.4191,0.02448 1.676,-0.03826 2.794,-0.1394 34.23,2.152 -12.79,63.49 -16.11,17.15 z m 26.36,-14.18 c -1.898,-1.273 -5.573,-2.568 -7.319,-2.579 -0.5995,-0.0038 -0.5857,0.03425 0.3652,1.008 0.5435,0.5566 1.395,1.144 1.893,1.305 1.703,0.5516 6.366,3.15 6.366,3.547 10.64,9.914 -75.13,49.33 -19.05,-1.671 0.5613,-0.3543 1.02,-0.7428 1.02,-0.8633 0,-0.1205 0.0737,-0.5878 0.1639,-1.038 l 0.1639,-0.8193 -0.8624,0.4457 c -4.179,2.16 -7.489,6.588 -8.498,11.37 4.603,32.79 53.42,8.619 25.76,-10.7 z m -13.83,18.94 0.0201,-1.029 c -1.054,12.54 -0.1922,9.842 -0.0201,1.029 z m 13.44,-10.02 c -0.8925,-0.3425 -3.316,1.656 -4.918,4.055 -0.9092,1.362 -1.03,1.698 -0.8824,2.469 -0.6666,11.06 8.478,-3.004 5.801,-6.524 z m -9.846,9.575 c -0.1608,0 -0.9133,-0.6286 -1.672,-1.397 -0.7587,-0.7684 -1.448,-1.397 -1.532,-1.397 -0.0837,0 -0.34,0.3939 -0.5695,0.8753 -0.3996,0.8379 -0.3961,0.882 0.08,1.033 0.307,0.0974 0.4973,0.3852 0.4973,0.752 0,0.4692 0.1069,0.5662 0.5085,0.4611 1.263,2.213 6.864,2.128 2.688,-0.3275 z m 3.351,-0.902 c 0.6875,-0.2873 0.8323,-0.4604 0.6783,-0.8111 -0.4108,-0.9354 -0.4093,-2.295 0.003,-3.093 0.2299,-0.4446 1.227,-1.66 2.215,-2.7 1.382,-1.455 1.68,-1.892 1.292,-1.892 -0.3952,0 -0.4799,-0.1317 -0.3894,-0.6052 0.0636,-0.3329 -0.009,-0.6825 -0.1622,-0.777 -0.1632,-0.1008 -0.2779,0.0232 -0.2779,0.3004 0,0.548 -0.4638,1.082 -0.9398,1.082 -0.1829,0 -0.3302,-0.2833 -0.3302,-0.635 0,-1.219 -0.8771,-0.6362 -1.092,0.7254 -0.2696,1.707 -0.7645,2.196 -2.224,2.196 -1.185,0 -1.309,-0.0611 -1.797,-0.889 -0.8174,-1.385 -1.817,-1.16 -2.074,0.4672 -0.203,1.286 -0.4978,1.597 -1.695,1.788 l -0.9985,0.1597 0.3376,0.803 c 0.1857,0.4416 1.18,1.652 2.209,2.69 l 1.871,1.887 1.25,-0.1658 c 0.6874,-0.0912 1.643,-0.3301 2.124,-0.531 z m -2.991,-1.888 c 0.2096,-0.1374 0.6572,-0.2515 0.9948,-0.2536 0.8152,-0.005 0.6086,0.1393 -0.4868,0.3403 -0.6255,0.1148 -0.776,0.0891 -0.508,-0.0866 z m -0.6326,-0.7694 c 0.085,-0.1376 0.5098,-0.2502 0.944,-0.2502 0.9595,0 0.8626,0.1268 -0.2604,0.3407 -0.5237,0.0998 -0.7801,0.0658 -0.6835,-0.0905 z m 1.903,-0.2581 c 0,-0.1353 0.1714,-0.246 0.381,-0.246 0.2096,0 0.381,0.0449 0.381,0.0998 0,0.0549 -0.1714,0.1656 -0.381,0.246 -0.2096,0.0804 -0.381,0.0355 -0.381,-0.0998 z m -2.117,-1.431 c -0.0931,-0.0931 -0.1693,-0.3436 -0.1693,-0.5566 0,-0.34 0.0387,-0.3384 0.3175,0.0131 0.1746,0.2202 0.489,0.4616 0.6985,0.5365 0.2616,0.0935 0.2152,0.1425 -0.1482,0.1562 -0.291,0.011 -0.6054,-0.0562 -0.6985,-0.1493 z m -3.279,1.994 c -90.34,-57.63 -45.17,-28.81 0,0 z m -3.448,-3.983 c 0.3065,-0.6727 0.5848,-0.7985 0.8428,-0.381 0.0863,0.1397 0.5415,0.254 1.011,0.254 0.6155,0 1.073,-0.2186 1.636,-0.7815 0.4298,-0.4298 0.7815,-0.9045 0.7815,-1.055 0,-0.1882 -0.8904,-0.2246 -2.858,-0.1171 -3.756,0.2054 -4.508,0.3671 -4.508,0.9692 0,0.2619 0.1531,0.4762 0.3402,0.4762 0.1871,0 0.4704,0.2858 0.6296,0.635 0.2164,0.4748 0.4843,0.635 1.062,0.635 0.5777,0 0.8459,-0.1602 1.062,-0.635 z m 7.142,-2.325 c 0.116,-0.1952 0.637,-0.3418 1.215,-0.3418 2.127,0 7.319,-2.319 9.201,-4.109 0.8476,-0.8063 0.9581,-1.022 0.6888,-1.347 -0.539,-0.6495 -3.001,-0.5139 -4.089,0.2252 -3.103,2.108 -9.229,3.561 -13.02,3.088 -1.193,-0.1491 -1.438,-0.2638 -1.438,-0.6731 0,-0.4599 -0.0991,-0.4431 -1.46,0.2468 -1.7,0.8614 -2.688,1.821 -2.558,2.483 0.086,0.4378 0.434,0.4644 5.547,0.4233 3.001,-0.0241 5.141,0.0121 4.757,0.0804 -0.3842,0.0683 -0.6985,0.2281 -0.6985,0.355 0,0.3424 1.618,-0.0334 1.854,-0.4307 z m 8.306,-1.66 c 0,-0.7353 -0.1549,-0.8493 -0.6911,-0.5086 -0.2055,0.1305 -0.2565,0.5278 -0.1512,1.177 0.1453,0.8954 0.1884,0.9395 0.5006,0.5125 0.1879,-0.257 0.3416,-0.7883 0.3416,-1.181 z m -1.932,0.9168 c 0.2487,-0.6482 0.18,-0.8622 -0.2268,-0.7061 -0.2096,0.0804 -0.381,0.3626 -0.381,0.627 0,0.5835 0.3946,0.6348 0.6078,0.079 z m -5.053,-2.768 c 2.747,-0.8023 5.715,-2.123 5.715,-2.544 0,-0.1672 -0.2156,-0.4992 -0.4792,-0.7377 -0.4554,-0.4121 -0.6125,-0.3767 -3.159,0.7108 -4.125,1.762 -5.233,2.021 -7.949,1.859 l -2.332,-0.1392 -0.1068,0.7277 c -0.0908,0.6185 -0.009,0.7454 0.5459,0.8458 1.614,0.2921 5.542,-0.0734 7.765,-0.7226 z m -2.42,-1.274 c 1.551,-0.4019 6.327,-2.307 6.713,-2.678 0.2983,-0.2866 -3.318,-4.024 -4.079,-4.214 -0.6126,-0.1538 -1.518,0.3718 -3.199,1.857 -0.5243,0.4632 -1.124,0.8422 -1.334,0.8422 -0.4101,0 -0.529,-0.8941 -0.15,-1.128 0.1267,-0.07829 0.1705,0.08642 0.0974,0.366 -0.1877,0.7178 0.2218,0.6309 1.037,-0.22 l 0.6978,-0.7283 -0.9678,-0.3837 c -1.588,-0.6295 -2.509,-0.759 -2.799,-0.3934 -0.3894,0.4908 -1.038,2.631 -1.429,4.713 l -0.346,1.844 0.7868,0.2283 c 1.227,0.356 3.366,0.3108 4.971,-0.105 z m 0.8962,-6.479 c 0.0913,-0.1478 -0.1617,-0.254 -0.605,-0.254 -0.4191,0 -0.8326,0.1143 -0.919,0.254 -0.0913,0.1478 0.1617,0.254 0.605,0.254 0.4191,0 0.8326,-0.1143 0.919,-0.254 z"
         fill="#0a0905"
         stroke-width="0.254"
         id="path6" />
    </g>
    <g
       transform="translate(10.58,67.61)"
       stroke-width="0.254"
       id="g18">
      <path
         d="m 3.681,47.81 c -0.1566,-0.408 1.276,-1.901 1.824,-1.901 0.2047,0 0.3722,-0.1059 0.3722,-0.2354 0,-0.4209 0.8769,-0.4472 1.356,-0.04072 0.8879,0.7528 4.134,0.8382 7.28,0.1915 0.2096,-0.04309 0.565,-0.1621 0.79,-0.2644 0.2249,-0.1023 0.7393,-0.2293 1.143,-0.282 0.4037,-0.05278 0.7626,-0.1181 0.7975,-0.1452 0.0349,-0.02709 0.1492,-0.06443 0.254,-0.08299 0.1048,-0.01856 0.6234,-0.2403 1.152,-0.4927 0.5286,-0.2524 1.202,-0.5051 1.495,-0.5616 0.2933,-0.05649 0.7463,-0.2954 1.007,-0.531 0.2603,-0.2355 0.4732,-0.3534 0.4732,-0.2619 0,0.0915 0.2281,-0.0617 0.5068,-0.3405 0.3986,-0.3986 0.819,-0.5001 1.968,-0.4754 0.8039,0.01727 1.544,0.1596 1.644,0.3163 0.2207,0.3455 -1.212,1.67 -2.534,2.342 -0.5222,0.2656 -0.9878,0.5693 -1.035,0.675 -0.0469,0.1056 -0.1897,0.1275 -0.3175,0.04851 -0.1278,-0.07896 -0.2323,-0.02253 -0.2323,0.1254 0,0.1479 -0.1206,0.269 -0.2679,0.269 -0.1474,0 -0.7833,0.2348 -1.413,0.5217 -0.6298,0.2869 -1.567,0.5745 -2.082,0.639 -0.515,0.06454 -1.279,0.2207 -1.698,0.347 -0.419,0.1263 -3.369,0.2881 -6.555,0.3595 -4.779,0.1072 -5.817,0.06857 -5.928,-0.2206 z m 5.16,-4.396 C 8.2816,43.34992 8.1617,43.2375 8.2994,42.906 c 0.0973,-0.2341 0.2144,-0.6543 0.2603,-0.9337 0.0459,-0.2794 0.1574,-0.7938 0.2479,-1.143 0.0905,-0.3492 0.1602,-0.8444 0.1549,-1.1 -0.005,-0.2559 0.1158,-0.7703 0.2692,-1.143 0.1534,-0.3727 0.3105,-0.8355 0.3492,-1.028 0.1481,-0.7381 0.5887,-0.9137 1.443,-0.575 0.9081,0.3602 1.408,0.496 1.933,0.5252 0.286,0.01594 0.2899,0.09014 0.0218,0.4132 -0.2847,0.3431 -0.3739,0.3466 -0.6933,0.02721 -0.3194,-0.3194 -0.4291,-0.3039 -0.8531,0.1201 -0.3838,0.3838 -0.4298,0.5927 -0.2178,0.9888 0.4015,0.7502 0.8624,0.6208 2.283,-0.6408 0.7078,-0.6286 1.455,-1.143 1.659,-1.143 0.2049,0 0.3725,-0.1143 0.3725,-0.254 0,-0.1397 0.2453,-0.254 0.545,-0.254 0.3321,0 1.223,0.6698 2.281,1.714 1.553,1.534 2.421,2.639 1.743,2.221 -0.1381,-0.08535 -0.2511,-0.03414 -0.2511,0.1138 0,0.1479 -0.0857,0.2447 -0.1905,0.215 -0.1048,-0.02968 -0.4326,0.0806 -0.7286,0.2451 -0.296,0.1645 -0.6103,0.2268 -0.6985,0.1386 -0.0882,-0.08822 -0.1604,-0.0203 -0.1604,0.1509 0,0.1712 -0.1143,0.2407 -0.254,0.1543 -0.1397,-0.0864 -0.254,-0.02919 -0.254,0.127 0,0.1562 -0.1064,0.2182 -0.2364,0.1378 -0.13,-0.08037 -0.3002,-0.04293 -0.3782,0.08322 -0.078,0.1261 -0.5431,0.3046 -1.034,0.3967 -0.4905,0.09202 -0.8918,0.2764 -0.8918,0.4098 0,0.1334 -0.0857,0.2243 -0.1905,0.2022 -0.1048,-0.02218 -0.3635,0.03683 -0.5749,0.1311 -0.4249,0.1895 -4.282,0.3376 -5.414,0.2079 z"
         fill="#e5e5e5"
         id="path10"
         sodipodi:nodetypes="csscscccssccsccccccssccscccccsscscccccsccsssccscscsssccsscccc" />
      <path
         d="m 14.74,67.92 c 0.454,-0.05634 1.197,-0.05634 1.651,0 0.454,0.05634 0.0825,0.1024 -0.8255,0.1024 -0.908,0 -1.28,-0.0461 -0.8255,-0.1024 z M 4.49,63.214 4.0061,62.6425 4.5776,63.1264 c 0.5371,0.4547 0.6871,0.6591 0.4839,0.6591 -0.0482,0 -0.3054,-0.2572 -0.5715,-0.5715 z m 18.1,-0.8667 c -0.1672,-0.1672 1.217,-2.845 2.198,-4.251 l 0.5134,-0.736 0.2177,0.5886 c 0.1662,0.4493 0.288,0.5183 0.5148,0.2915 0.3681,-0.3681 1.211,-0.3911 1.211,-0.03294 0,0.5293 -1.024,2.252 -1.562,2.63 -0.7107,0.4978 -1.012,0.3003 -0.8547,-0.5597 0.0688,-0.3756 -0.1851,-0.02571 -0.5643,0.7776 -0.6367,1.349 -1.191,1.776 -1.674,1.292 z m -2.71,-5.809 c 0,-0.214 0.1641,-0.7819 0.3647,-1.262 0.349,-0.8352 0.344,-0.8599 -0.1154,-0.573 -1.486,0.9281 -0.2839,-1.555 1.781,-3.678 1.713,-1.761 2.178,-1.758 1.935,0.01174 -0.1668,1.217 -1.241,3.341 -2.497,4.938 -0.772,0.9813 -1.469,1.248 -1.469,0.5633 z m 7.765,-0.8205 c -0.0607,-0.06073 -0.5468,-0.1277 -1.08,-0.1489 -0.8799,-0.03491 -0.9619,-0.09737 -0.8844,-0.6735 0.117,-0.8691 0.2173,-0.9284 1.883,-1.113 1.386,-0.1534 2.043,0.1393 0.9525,0.4244 -0.2794,0.07306 -0.508,0.315 -0.508,0.5376 0,0.3008 0.253,0.4048 0.9849,0.4048 1.193,0 1.794,-0.5485 1.281,-1.167 -0.2937,-0.3539 -0.2599,-0.3942 0.2665,-0.3175 0.8906,0.1298 0.907,0.6247 0.0491,1.483 -0.6199,0.6199 -0.9556,0.7546 -1.798,0.7216 -0.5697,-0.02232 -1.086,-0.09027 -1.146,-0.151 z"
         fill="#d4ae00"
         id="path12" />
      <path
         d="m 39.26,66.12 c -2.544,-1.505 -4.695,-2.807 -4.78,-2.892 -0.0853,-0.08532 0.1105,-0.6778 0.4351,-1.317 l 0.5902,-1.161 8.761,5.172 v 1.472 c 0,0.8095 -0.0857,1.47 -0.1905,1.468 -0.1048,-0.002 -2.272,-1.236 -4.815,-2.741 z M 23.18,65.5637 c 0,-0.1491 0.1714,-0.6814 0.381,-1.183 0.4849,-1.161 0.4821,-1.612 -0.01,-1.612 -0.2934,0 -0.3208,-0.07922 -0.1098,-0.3175 0.1547,-0.1746 0.5603,-0.889 0.9015,-1.588 0.3886,-0.7957 0.5716,-1.015 0.4899,-0.5871 -0.164,0.8592 0.1379,1.058 0.8495,0.5597 0.5384,-0.3771 1.562,-2.1 1.562,-2.63 0,-0.3581 -0.8433,-0.3352 -1.211,0.03294 -0.2267,0.2267 -0.3486,0.1577 -0.5148,-0.2915 l -0.2177,-0.5886 -0.5134,0.736 c -0.2824,0.4048 -0.9428,1.511 -1.468,2.459 -1.017,1.836 -0.9342,1.799 -2.629,1.165 l -0.5846,-0.2188 0.7532,-1.081 c 0.4142,-0.5944 1.366,-1.68 2.116,-2.413 l 1.362,-1.332 2.724,0.3044 c 3.125,0.3492 3.004,0.1255 1.617,2.995 -1.074,2.223 -5.498,6.72 -5.498,5.589 z M 5.5,64.2297 5.0161,63.6582 5.5876,64.1421 c 0.5371,0.4547 0.6871,0.6591 0.4839,0.6591 -0.0482,0 -0.3054,-0.2572 -0.5715,-0.5715 z m 14.12,-3.659 c 0,-0.2934 -0.1833,-0.6855 -0.4073,-0.8715 -0.3158,-0.2621 -0.3655,-0.5687 -0.221,-1.365 0.2255,-1.242 0.2259,-2.424 0.002,-3.948 -0.1483,-1.007 -0.0737,-1.285 0.6253,-2.336 1.153,-1.733 3.743,-4.06 4.412,-3.964 0.4642,0.0662 0.5243,0.2051 0.4185,0.9663 -0.2328,1.674 -0.0896,3.294 0.3324,3.76 0.8347,0.9223 0.3066,2.1 -2.095,4.673 -1.213,1.299 -2.399,2.645 -2.636,2.99 -0.4074,0.5942 -0.4306,0.5993 -0.4306,0.0946 z m 1.723,-4.596 c 1.256,-1.596 2.33,-3.721 2.497,-4.938 0.2426,-1.77 -0.2228,-1.773 -1.935,-0.01174 -2.065,2.123 -3.267,4.606 -1.781,3.678 0.4595,-0.2869 0.4644,-0.2623 0.1154,0.573 -0.7725,1.849 -0.1238,2.259 1.104,0.6986 z m -7.698,3.303 c -0.1429,-0.1053 -0.4599,-0.5058 -0.7044,-0.89 -0.2445,-0.3842 -0.6705,-0.6985 -0.9466,-0.6985 -0.3663,0 -0.5021,-0.1718 -0.5021,-0.635 0,-0.4139 -0.1421,-0.635 -0.4082,-0.635 -0.2891,0 -0.3548,-0.1297 -0.2252,-0.4445 0.1006,-0.2445 0.2416,-0.6488 0.3133,-0.8984 0.1074,-0.3741 0.426,-0.183 1.813,1.087 2.251,2.061 3.079,2.886 3.079,3.062 0,0.2242 -2.123,0.2701 -2.419,0.05223 z m -10.15,-3.366 c 0.2528,-0.2794 0.5169,-0.508 0.5867,-0.508 0.0699,0 -0.0799,0.2286 -0.3327,0.508 -0.2528,0.2794 -0.5169,0.508 -0.5867,0.508 -0.0698,0 0.0799,-0.2286 0.3327,-0.508 z m 21.72,-0.493 c 0,-0.1315 0.0952,-0.2979 0.2117,-0.3698 0.1164,-0.07195 0.2117,0.0356 0.2117,0.239 0,0.2034 -0.0952,0.3698 -0.2117,0.3698 -0.1164,0 -0.2117,-0.1076 -0.2117,-0.239 z m 0.3588,-1.285 c 0.0193,-0.2748 0.3448,-0.3868 1.167,-0.4017 l 1.141,-0.02075 -1.063,0.09751 c -0.5849,0.05363 -1.11,0.2344 -1.167,0.4017 -0.0572,0.1673 -0.092,0.1328 -0.0773,-0.07676 z m -17.88,-9.737 c 0,-0.8402 0.115,-0.8872 1.537,-0.6288 2.419,0.4396 4.491,-0.05652 10.35,-2.478 1.076,-0.4446 1.101,-0.4432 1.637,0.09362 l 0.545,0.545 -1.988,0.9186 c -3.033,1.401 -6.301,2.142 -9.447,2.142 -2.591,0 -2.634,-0.0099 -2.634,-0.5927 z"
         fill="#b28b00"
         id="path14" />
      <path
         d="M 12.31,67.68 C 8.111,66.7257 4.196,63.616 2.3,59.731 1.5489,58.191 0.748,55.719 1,55.719 c 0.0374,0 0.5604,0.1737 1.162,0.386 1.092,0.3853 1.096,0.3846 1.886,-0.3817 l 0.7922,-0.7678 6.197,2.124 4.1e-4,1.034 4e-4,1.034 5.998,2.025 c 3.299,1.114 6.043,2.143 6.099,2.287 0.0554,0.1443 -0.1189,0.8858 -0.3873,1.648 -0.4749,1.349 -0.5311,1.402 -2.099,2.005 -1.303,0.5008 -2.169,0.6336 -4.532,0.6945 -1.607,0.04144 -3.321,-0.01557 -3.81,-0.1267 z M 29.26,53.77 c 0.1746,-0.07046 0.4604,-0.07046 0.635,0 0.1746,0.07046 0.0317,0.1281 -0.3175,0.1281 -0.3492,0 -0.4921,-0.05765 -0.3175,-0.1281 z"
         fill="#fdd80d"
         id="path16" />
    </g>
    <g
       transform="translate(-44.86,14.93)"
       stroke-width="0.254"
       id="g24">
      <path
         d="m 67.76,126.4 c -7.849,-1.439 -14.16,-6.936 -16.43,-14.32 -2.301,-7.464 -0.3387,-15.19 5.277,-20.77 3.258,-3.237 7.155,-5.193 11.57,-5.806 2.621,-0.3646 3.985,-0.3431 6.544,0.1032 4.254,0.7419 7.637,2.519 10.89,5.721 3.538,3.485 5.57,7.648 6.06,12.41 0.6682,6.504 -1.422,12.23 -6.175,16.93 -2.614,2.582 -5.439,4.254 -8.792,5.204 -2.131,0.6042 -6.95,0.8859 -8.933,0.5223 z m 6.225,-1.419 c 7.147,-0.7651 13.79,-6.677 15.83,-14.09 0.6271,-2.282 0.6271,-7.37 0,-9.652 -1.502,-5.465 -5.132,-9.852 -10.2,-12.32 -2.878,-1.403 -5.185,-1.952 -8.255,-1.962 -3.203,-0.01108 -5.734,0.5665 -8.509,1.942 -6.509,3.226 -10.36,9.026 -10.72,16.16 -0.3942,7.675 3.493,14.45 10.32,17.99 1.058,0.5489 2.599,1.193 3.424,1.432 1.659,0.4795 4.685,0.8567 5.866,0.7311 0.4191,-0.0446 1.429,-0.1525 2.245,-0.2398 z m -5.054,-35.93 c -16.04,-69.33 -8.021,-34.66 0,0 z"
         fill="#adadad"
         id="path20" />
      <path
         d="m 98.33,125.6 c 0.0589,-0.0953 -0.0692,-0.3901 -0.2846,-0.6552 -0.2154,-0.2651 -0.3123,-0.3276 -0.2152,-0.1391 0.1422,0.2763 0.0719,0.2869 -0.3622,0.0546 -0.2963,-0.1586 -0.5386,-0.3482 -0.5386,-0.4213 0,-0.0732 0.1429,-0.0524 0.3175,0.0462 0.213,0.1202 0.2339,0.0945 0.0635,-0.0782 -0.4007,-0.4062 -2.778,-1.727 -2.606,-1.447 0.0854,0.1382 -0.0459,0.2512 -0.2918,0.2512 -0.2459,0 -0.447,-0.1419 -0.447,-0.3154 0,-0.1735 0.0952,-0.2565 0.2117,-0.1846 0.1164,0.072 0.2117,0.0782 0.2117,0.0139 0,-0.1393 -1.736,-1.183 -1.968,-1.183 -0.0886,0 0.0554,0.1583 0.32,0.3517 0.4515,0.3301 0.4399,0.3472 -0.1876,0.2783 -0.4052,-0.0445 -0.7245,0.0724 -0.8106,0.2965 -0.0781,0.2034 -0.0534,0.3152 0.0547,0.2483 0.1082,-0.0669 0.1967,0.0796 0.1967,0.3255 0,0.2459 -0.1419,0.447 -0.3154,0.447 -0.1735,0 -0.2456,-0.1129 -0.1603,-0.2509 0.0898,-0.1453 0.0244,-0.1702 -0.1555,-0.059 -0.1708,0.1056 -0.2497,0.3505 -0.1754,0.5442 0.0743,0.1937 -0.004,0.3251 -0.1732,0.2918 -0.1696,-0.0333 -0.2837,0.0707 -0.2536,0.231 0.0332,0.1764 -0.1674,0.2429 -0.508,0.1685 -0.4676,-0.1022 -0.4984,-0.073 -0.1818,0.1724 0.3387,0.2626 0.3387,0.2836 0,0.1889 -0.4497,-0.1256 -0.3764,-0.9898 0.1745,-2.056 0.2928,-0.5666 0.301,-0.6875 0.037,-0.5495 -0.1862,0.0973 -0.0527,-0.0714 0.2965,-0.3751 0.3492,-0.3036 0.5082,-0.4882 0.3532,-0.4101 -0.1751,0.0882 -0.2564,-0.0891 -0.2148,-0.4681 0.0637,-0.5801 -0.3256,-0.9417 -1.079,-1.002 -0.1681,-0.0135 -0.4909,-0.2532 -0.7173,-0.5326 -0.2264,-0.2794 -0.3544,-0.3896 -0.2844,-0.2449 0.07,0.1447 -0.0867,0.2631 -0.3481,0.2631 -0.3848,0 -0.4175,-0.0696 -0.1718,-0.3656 0.1669,-0.2011 0.2653,-0.4147 0.2188,-0.4747 -0.0466,-0.06 2.6e-4,-0.1853 0.1042,-0.2785 0.1039,-0.0931 0.1049,0.002 0.002,0.2117 -0.2463,0.5029 0.5752,-0.498 0.9111,-1.11 0.195,-0.3553 0.1839,-0.4277 -0.044,-0.2868 -0.2345,0.1449 -0.2376,0.063 -0.0136,-0.3556 0.1601,-0.2992 0.211,-0.6735 0.1131,-0.8319 -0.1127,-0.1823 -0.064,-0.2175 0.1326,-0.0961 0.1708,0.1056 0.2547,0.3376 0.1863,0.5157 -0.0683,0.178 0.01,0.3094 0.1732,0.2918 0.1636,-0.0175 2.441,1.218 5.06,2.746 l 4.762,2.778 v 1.731 c 0,0.9519 -0.0857,1.74 -0.1905,1.752 -0.1048,0.0116 -0.4424,0.0493 -0.7502,0.0837 -0.3078,0.0344 -0.5115,-0.0154 -0.4526,-0.1107 z m -27.36,-0.1676 c 0.1834,-0.0734 0.4024,-0.0644 0.4868,0.02 0.0844,0.0844 -0.0656,0.1444 -0.3334,0.1334 -0.2959,-0.0122 -0.3561,-0.0724 -0.1535,-0.1534 z m -0.9049,-0.5195 c 0.5239,-0.0548 1.381,-0.0548 1.905,0 0.5239,0.0548 0.0952,0.0996 -0.9525,0.0996 -1.048,0 -1.476,-0.0448 -0.9525,-0.0996 z m -3.089,-0.2825 c -0.4848,-0.0685 -0.5378,-0.1389 -0.254,-0.3374 0.2636,-0.1843 0.1755,-0.2216 -0.3321,-0.1406 -0.4255,0.0679 -0.6297,0.0114 -0.5318,-0.1471 0.0975,-0.1577 -0.0531,-0.2018 -0.389,-0.114 -0.3362,0.0879 -0.4865,0.0438 -0.3889,-0.1142 0.1009,-0.1633 -0.0499,-0.1912 -0.4125,-0.0761 -0.3588,0.1139 -0.513,0.0867 -0.4143,-0.0732 0.1789,-0.2894 -0.5306,-0.6358 -0.8712,-0.4253 -0.2256,0.1394 -1.763,-0.5468 -1.763,-0.787 0,-0.0712 0.2286,-0.007 0.508,0.1425 0.2794,0.1495 0.508,0.2136 0.508,0.1425 0,-0.0712 -0.3555,-0.3132 -0.79,-0.5379 -0.4628,-0.2393 -0.7131,-0.2841 -0.6043,-0.1082 0.3816,0.6174 -0.817,-0.2335 -1.242,-0.8814 -0.232,-0.354 -0.5104,-0.6159 -0.6186,-0.5818 -0.2108,0.0663 -2.422,-2.105 -2.446,-2.402 -0.008,-0.0978 -0.1805,-0.3264 -0.3834,-0.508 -0.3223,-0.2886 -0.3223,-0.2662 0,0.1778 0.343,0.4725 0.3369,0.483 -0.0873,0.1498 -0.2508,-0.197 -0.4056,-0.4898 -0.3438,-0.6507 0.0617,-0.1609 -0.1144,-0.5712 -0.3915,-0.9118 -0.277,-0.3406 -0.419,-0.4588 -0.3154,-0.2626 0.1253,0.2373 0.0887,0.2952 -0.1091,0.173 -0.1636,-0.1011 -0.238,-0.2799 -0.1654,-0.3973 0.1937,-0.3134 -0.1388,-1.042 -0.4014,-0.8797 -0.1235,0.0763 -0.1492,-0.0574 -0.0572,-0.2971 0.1127,-0.2937 0.0713,-0.3766 -0.127,-0.254 -0.1983,0.1226 -0.2397,0.0397 -0.127,-0.254 0.1225,-0.3191 0.0772,-0.3802 -0.1692,-0.228 -0.2106,0.1301 -0.2754,0.1091 -0.1732,-0.0561 0.2432,-0.3935 -0.3404,-1.875 -0.6606,-1.677 -0.1743,0.1077 -0.2112,0.009 -0.1025,-0.2745 0.2097,-0.5465 -0.0587,-1.718 -0.352,-1.537 -0.1178,0.0728 -0.1664,-0.4137 -0.1079,-1.081 0.0622,-0.7098 0.0306,-0.9702 -0.0762,-0.6272 -0.1004,0.3226 -0.1825,-0.7986 -0.1825,-2.491 0,-1.693 0.0835,-2.814 0.1855,-2.491 0.1137,0.3594 0.151,0.0948 0.0963,-0.6835 -0.0491,-0.6985 -0.0321,-1.111 0.0378,-0.9174 0.0699,0.1939 0.3922,-0.4836 0.7163,-1.506 0.324,-1.022 0.5202,-1.97 0.4359,-2.106 -0.0843,-0.1364 -0.0333,-0.1739 0.1133,-0.08326 0.1466,0.09063 0.3358,-0.01535 0.4202,-0.2355 0.2306,-0.601 0.1779,-0.7894 -0.1004,-0.3588 -0.1722,0.2664 -0.2474,0.2831 -0.2501,0.05553 -0.002,-0.179 0.1707,-0.3925 0.3842,-0.4744 0.2134,-0.0819 0.5106,-0.3779 0.6603,-0.6577 0.1498,-0.2798 0.1711,-0.4462 0.0474,-0.3698 -0.1237,0.07645 -0.2249,-0.07576 -0.2249,-0.3383 0,-0.2625 0.0507,-0.4265 0.1127,-0.3646 0.062,0.06199 0.2947,-0.02918 0.5171,-0.2026 0.3407,-0.2657 0.3644,-0.2538 0.1504,0.07561 -0.1397,0.215 0.0512,0.0447 0.4242,-0.3784 0.373,-0.4231 0.6588,-0.8411 0.635,-0.9288 -0.0238,-0.08771 0.1908,-0.3746 0.4768,-0.6376 0.286,-0.2629 0.3431,-0.3638 0.127,-0.2241 -0.3404,0.22 -0.3472,0.1956 -0.0511,-0.1824 0.188,-0.24 0.438,-0.4115 0.5554,-0.381 0.1175,0.03046 0.5351,-0.2938 0.9281,-0.7206 0.393,-0.4268 0.5498,-0.5411 0.3484,-0.254 -0.2014,0.2871 0.0997,0.0362 0.6692,-0.5575 0.9699,-1.011 1.592,-1.425 1.208,-0.8045 -0.0935,0.1512 0.1855,0.09115 0.62,-0.1335 0.4345,-0.2247 0.79,-0.4667 0.79,-0.5379 0,-0.07118 -0.2286,-0.0071 -0.508,0.1425 -0.2794,0.1495 -0.508,0.213 -0.508,0.1411 0,-0.3138 2.041,-1.138 2.44,-0.9846 0.2691,0.1033 0.3753,0.06743 0.2761,-0.09313 -0.2408,-0.3896 2.183,-1.087 3.303,-0.9499 0.5628,0.06867 0.7846,0.03641 0.5314,-0.07728 -0.36,-0.1616 4.968,-0.2164 7.166,-0.0737 0.5938,0.03857 0.602,0.05691 0.127,0.2823 -0.399,0.1893 -0.3282,0.2135 0.3301,0.113 0.5674,-0.08667 0.7828,-0.03843 0.6667,0.1494 -0.1156,0.187 0.0148,0.2183 0.4002,0.09596 0.3588,-0.1139 0.513,-0.08666 0.4143,0.07317 -0.1649,0.2667 0.5767,0.6716 0.8074,0.4408 0.0731,-0.07314 -0.0194,-0.133 -0.2057,-0.133 -0.1863,0 -0.2788,-0.05984 -0.2057,-0.133 0.2391,-0.2391 0.9692,0.179 0.7976,0.4568 -0.1031,0.1668 -0.0132,0.2115 0.2344,0.1164 0.2379,-0.0913 0.4629,0.0054 0.5518,0.2372 0.0871,0.2269 0.3148,0.3281 0.5422,0.2409 0.2557,-0.09811 0.3288,-0.04809 0.2102,0.1438 -0.1226,0.1983 -0.0397,0.2397 0.254,0.127 0.2937,-0.1127 0.3766,-0.0713 0.254,0.127 -0.1207,0.1954 -0.0425,0.2408 0.2327,0.1352 0.228,-0.08749 0.493,-0.0321 0.5889,0.1231 0.1056,0.1709 0.0587,0.2107 -0.1189,0.1009 -0.6248,-0.3862 -0.2548,0.06931 0.4053,0.4989 0.6832,0.4446 0.6907,0.4439 0.344,-0.03429 -0.195,-0.2689 0.0336,-0.0829 0.508,0.4133 0.4744,0.4962 0.6997,0.6676 0.5006,0.381 -0.199,-0.2866 0.1413,-0.0068 0.7564,0.6219 0.615,0.6286 1.094,1.224 1.064,1.324 -0.0301,0.09958 0.4016,0.5478 0.9593,0.9959 0.5577,0.4482 0.9849,0.9604 0.9494,1.138 -0.0356,0.1779 0.1639,0.5097 0.4433,0.7374 0.2794,0.2277 0.3632,0.3404 0.1862,0.2505 -0.2201,-0.1118 -0.1868,0.1196 0.1054,0.7323 0.2349,0.4927 0.5106,0.8442 0.6127,0.7811 0.2193,-0.1355 0.5656,0.6563 0.3717,0.8501 -0.0731,0.07314 -0.133,-0.01942 -0.133,-0.2057 0,-0.1863 -0.0598,-0.2788 -0.133,-0.2057 -0.2308,0.2308 0.1741,0.9723 0.4408,0.8074 0.1598,-0.0988 0.1871,0.0554 0.0732,0.4143 -0.1097,0.3455 -0.0847,0.5118 0.0631,0.4205 0.1427,-0.0882 0.1986,0.1364 0.1343,0.5397 -0.0883,0.5536 -0.0539,0.6152 0.1731,0.3098 0.2186,-0.2939 0.2515,-0.1488 0.1442,0.635 -0.1065,0.7779 -0.0801,0.897 0.1126,0.508 0.188,-0.3792 0.2203,-0.1861 0.1277,0.762 -0.0758,0.7758 -0.043,1.083 0.0841,0.7902 0.1252,-0.2884 0.2024,0.5449 0.1937,2.089 -0.008,1.413 -0.1017,2.372 -0.2082,2.131 -0.1065,-0.241 -0.1378,0.1332 -0.0696,0.8317 0.0926,0.9481 0.0603,1.141 -0.1277,0.762 -0.1928,-0.389 -0.2192,-0.2699 -0.1126,0.508 0.1074,0.7838 0.0744,0.9289 -0.1442,0.635 -0.227,-0.3053 -0.2614,-0.2438 -0.1731,0.3098 0.0643,0.4033 0.008,0.6279 -0.1343,0.5397 -0.1478,-0.0913 -0.1728,0.075 -0.0631,0.4205 0.1139,0.3588 0.0867,0.513 -0.0732,0.4143 -0.2667,-0.1649 -0.6716,0.5767 -0.4408,0.8074 0.0731,0.0731 0.133,-0.0194 0.133,-0.2057 0,-0.1863 0.0598,-0.2788 0.133,-0.2057 0.2148,0.2148 -0.1647,0.9781 -0.4107,0.826 -0.1235,-0.0763 -0.1492,0.0574 -0.0572,0.2971 0.1135,0.2957 0.0717,0.3768 -0.1299,0.2522 -0.2839,-0.1755 -0.403,0.1176 -0.3192,0.7856 0.021,0.1673 -0.1898,0.4262 -0.4684,0.5754 -0.2786,0.1491 -0.45,0.4187 -0.3808,0.5991 0.0692,0.1804 -0.3374,0.7002 -0.9035,1.155 -0.5662,0.455 -0.9758,0.9139 -0.9103,1.02 0.1606,0.2598 -0.783,1.049 -0.9976,0.8339 -0.0933,-0.0933 -0.1315,-0.003 -0.085,0.1998 0.0466,0.2032 -0.0664,0.3746 -0.251,0.381 -0.1846,0.006 -0.6418,0.3589 -1.016,0.7835 -0.3742,0.4245 -0.566,0.6046 -0.4263,0.4001 0.1814,-0.2655 0.0544,-0.2418 -0.4445,0.0828 -0.6346,0.413 -1.042,0.8924 -0.4445,0.5232 0.1397,-0.0863 0.254,-0.0971 0.254,-0.0239 0,0.0732 -0.2424,0.2628 -0.5386,0.4213 -0.4106,0.2198 -0.4945,0.2169 -0.353,-0.012 0.1088,-0.176 -0.1415,-0.1312 -0.6044,0.1082 -0.4345,0.2247 -0.79,0.5163 -0.79,0.648 0,0.1317 -0.1902,0.1665 -0.4227,0.0773 -0.265,-0.1017 -0.3603,-0.0613 -0.2555,0.1084 0.1716,0.2777 -0.5585,0.6959 -0.7976,0.4568 -0.0731,-0.0731 0.0194,-0.133 0.2057,-0.133 0.1863,0 0.2788,-0.0598 0.2057,-0.133 -0.2308,-0.2308 -0.9723,0.1741 -0.8074,0.4408 0.0988,0.1598 -0.0554,0.1871 -0.4143,0.0732 -0.3854,-0.1223 -0.5158,-0.091 -0.4002,0.096 0.1161,0.1878 -0.0993,0.236 -0.6667,0.1494 -0.6796,-0.1038 -0.742,-0.08 -0.3301,0.1259 0.3836,0.1918 0.197,0.2255 -0.762,0.138 -0.7188,-0.0656 -1.016,-0.0359 -0.6856,0.0684 0.5711,0.1802 -5.827,0.2691 -7.039,0.0978 z m 1.311,-0.2087 c -0.1746,-0.0705 -0.4604,-0.0705 -0.635,0 -0.1746,0.0705 -0.0317,0.1281 0.3175,0.1281 0.3492,0 0.4921,-0.0577 0.3175,-0.1281 z m 5.144,-1.118 c -0.3784,-0.1809 -0.2489,-0.2074 0.508,-0.1037 0.785,0.1075 0.9294,0.0746 0.635,-0.1448 -0.3015,-0.2247 -0.2352,-0.2522 0.3175,-0.1316 0.802,0.175 2.025,-0.0681 1.841,-0.3658 -0.1418,-0.2294 0.6392,-0.5883 0.841,-0.3865 0.0731,0.0731 -0.0194,0.133 -0.2057,0.133 -0.1863,0 -0.2801,0.0585 -0.2086,0.1301 0.1347,0.1347 2.495,-0.8331 2.495,-1.023 0,-0.0589 -0.1429,-0.0723 -0.3175,-0.0297 -0.1746,0.0426 -0.2311,0.0292 -0.1254,-0.0297 0.1056,-0.0589 0.1204,-0.223 0.0328,-0.3647 -0.0968,-0.1567 0.0458,-0.1479 0.364,0.0224 0.3865,0.2068 0.5707,0.2032 0.7049,-0.0139 0.1018,-0.1647 0.0713,-0.2257 -0.0693,-0.1389 -0.138,0.0853 -0.2509,-0.005 -0.2509,-0.201 0,-0.2658 0.1174,-0.2933 0.4628,-0.1084 0.3772,0.2019 0.6856,0.023 1.667,-0.9662 0.6622,-0.6677 0.9778,-0.9282 0.7013,-0.5789 l -0.5026,0.635 0.5655,-0.4784 c 0.311,-0.2631 0.5089,-0.57 0.4398,-0.6819 -0.0692,-0.1119 0.3864,-0.6316 1.012,-1.155 1.092,-0.9127 1.77,-1.836 1.091,-1.486 -0.173,0.0892 -0.0288,-0.0862 0.3204,-0.3899 0.3492,-0.3036 0.4636,-0.4751 0.254,-0.381 -0.2096,0.0941 -0.0952,-0.0773 0.254,-0.381 0.3492,-0.3036 0.4934,-0.4791 0.3204,-0.3898 -0.2075,0.107 -0.2633,0.0285 -0.1639,-0.2305 0.0829,-0.216 0.2409,-0.337 0.3512,-0.2688 0.3016,0.1864 1.031,-1.825 0.8411,-2.32 -0.1009,-0.2629 -0.0638,-0.3676 0.0954,-0.2692 0.1609,0.0995 0.2246,-0.103 0.1666,-0.5298 -0.0827,-0.6092 -0.0635,-0.6308 0.1628,-0.1828 0.1972,0.3904 0.2276,0.2433 0.1314,-0.635 -0.0804,-0.734 -0.0496,-0.9652 0.0861,-0.6459 0.2859,0.6723 0.5659,-1.362 0.5016,-3.644 l -0.0473,-1.679 -0.1726,2.032 c -0.1707,2.009 -0.1721,2.003 -0.1208,-0.5834 0.0324,-1.634 -0.0352,-2.492 -0.18,-2.286 -0.1472,0.2092 -0.1748,-0.0156 -0.0756,-0.6162 0.2018,-1.221 -1.14,-4.57 -2.261,-5.641 -0.4282,-0.4093 -0.6071,-0.6566 -0.3976,-0.5495 0.2095,0.1071 0.0953,-0.05366 -0.254,-0.3573 -0.3492,-0.3036 -0.4636,-0.4623 -0.254,-0.3526 0.2096,0.1097 -0.3328,-0.4637 -1.205,-1.274 -0.8722,-0.8103 -1.516,-1.588 -1.43,-1.727 0.0975,-0.1578 -0.0304,-0.1531 -0.3399,0.01251 -0.3827,0.2048 -0.4963,0.1841 -0.4963,-0.09049 0,-0.1959 0.1129,-0.2863 0.2509,-0.201 0.1406,0.08687 0.171,0.0258 0.0693,-0.1389 -0.1226,-0.1984 -0.3281,-0.2156 -0.6319,-0.05297 -0.3315,0.1774 -0.4502,0.147 -0.4502,-0.1151 0,-0.1959 0.1238,-0.2955 0.2752,-0.2214 0.4289,0.2099 -0.6824,-0.6702 -1.216,-0.963 -0.342,-0.1876 -0.426,-0.1812 -0.2998,0.02292 0.0964,0.156 -0.2278,0.09143 -0.7205,-0.1435 -0.4927,-0.2349 -0.8292,-0.5349 -0.7478,-0.6665 0.0875,-0.1417 -0.0854,-0.1653 -0.4237,-0.05793 -0.3449,0.1095 -0.5118,0.08463 -0.4208,-0.06265 0.2471,-0.3998 -1.086,-0.8498 -2.082,-0.7032 -0.7411,0.1091 -0.8247,0.08418 -0.4181,-0.1246 0.3924,-0.2015 0.2478,-0.2302 -0.635,-0.1261 -0.6559,0.07735 -1.005,0.04391 -0.8188,-0.07847 0.1874,-0.1233 -0.7133,-0.2216 -2.134,-0.2331 -1.352,-0.01093 -2.328,0.06086 -2.168,0.1595 0.1597,0.09867 -0.3273,0.1734 -1.082,0.166 -1.068,-0.01042 -1.314,-0.08383 -1.109,-0.3309 0.3242,-0.3912 0.309,-0.3906 -0.9421,0.03919 -0.5588,0.192 -1.144,0.5969 -1.301,0.8998 -0.2343,0.4532 -0.3116,0.4807 -0.4365,0.1551 -0.0835,-0.2176 -0.2983,-0.3939 -0.4773,-0.3917 -0.2228,0.0027 -0.2374,0.06277 -0.0464,0.1905 0.4329,0.2895 0.3384,1.053 -0.1091,0.8812 -0.23,-0.08826 -0.3142,-0.03902 -0.2131,0.1246 0.1714,0.2773 -0.498,0.6658 -0.8124,0.4715 -0.0961,-0.05938 -0.4572,0.1216 -0.8026,0.4022 -0.3454,0.2806 -0.4674,0.4254 -0.2712,0.3219 0.2296,-0.1212 0.2946,-0.08775 0.1824,0.09387 -0.0959,0.1552 -0.3303,0.2223 -0.5209,0.1492 -0.1906,-0.07313 -0.5115,0.1026 -0.7132,0.3905 -0.2016,0.2879 -0.4516,0.4384 -0.5555,0.3346 -0.1039,-0.1039 -0.1508,-0.04932 -0.1042,0.1213 0.0466,0.1706 -0.544,0.8983 -1.312,1.617 -0.768,0.7187 -1.226,1.227 -1.016,1.128 0.2096,-0.09824 0.0952,0.06981 -0.254,0.3735 -0.3492,0.3036 -0.4636,0.4751 -0.254,0.381 0.2096,-0.0941 0.0952,0.07735 -0.254,0.381 -0.3492,0.3036 -0.5166,0.4934 -0.3719,0.4217 0.1447,-0.07172 0.2631,0.07077 0.2631,0.3166 0,0.2459 -0.1419,0.447 -0.3154,0.447 -0.1735,0 -0.2456,-0.1129 -0.1603,-0.2509 0.0853,-0.138 0.0281,-0.1724 -0.1271,-0.07653 -0.1552,0.09591 -0.2106,0.3609 -0.1231,0.5889 0.1125,0.2931 0.064,0.3558 -0.1653,0.2141 -0.243,-0.1502 -0.2789,-0.05716 -0.143,0.3711 0.1095,0.3449 0.0846,0.5118 -0.0627,0.4208 -0.2625,-0.1622 -0.9361,1.078 -0.7089,1.305 0.0751,0.0751 0.1365,-0.0159 0.1365,-0.2022 0,-0.1863 0.0598,-0.2788 0.133,-0.2057 0.2018,0.2018 -0.1571,0.9828 -0.3865,0.841 -0.2996,-0.1852 -0.5237,0.9755 -0.3752,1.943 0.0924,0.6019 0.0672,0.7057 -0.086,0.3552 -0.1329,-0.3039 -0.1972,0.5788 -0.1666,2.286 0.0494,2.758 0.0484,2.763 -0.1214,0.6221 l -0.1712,-2.159 -0.048,1.949 c -0.0541,2.195 0.4128,4.737 0.7744,4.216 0.1366,-0.1968 0.1581,0.0122 0.0549,0.534 -0.1182,0.5975 -0.0844,0.8046 0.1116,0.6835 0.1546,-0.0956 0.2812,-0.046 0.2812,0.1102 0,0.1562 0.114,0.2136 0.2532,0.1275 0.1682,-0.104 0.1685,0.0664 7.6e-4,0.5075 -0.1876,0.4935 -0.1763,0.617 0.0439,0.4808 0.2007,-0.1241 0.2424,-0.0425 0.1291,0.2527 -0.0994,0.2589 -0.0653,0.3728 0.0838,0.2807 0.1381,-0.0854 0.2511,-0.0274 0.2511,0.1288 0,0.1562 0.113,0.2142 0.2511,0.1288 0.1468,-0.0907 0.1848,0.0175 0.0917,0.2603 -0.1276,0.3325 -0.2023,0.3478 -0.3742,0.0767 -0.364,-0.5742 -0.2448,0.0243 0.1611,0.8093 0.3708,0.717 1.309,1.433 1.723,1.315 0.1108,-0.0317 0.0819,0.1657 -0.0642,0.4386 -0.1905,0.3559 -0.1824,0.5476 0.0284,0.6779 0.1647,0.1018 0.2257,0.0713 0.1389,-0.0692 -0.0853,-0.138 0.005,-0.2509 0.201,-0.2509 0.2587,0 0.2919,0.12 0.1212,0.439 -0.1643,0.3071 -0.122,0.5327 0.1407,0.7508 0.2066,0.1715 0.3757,0.2149 0.3757,0.0965 0,-0.1184 0.6188,0.4391 1.375,1.239 1.295,1.369 1.938,1.852 1.515,1.137 -0.1032,-0.1746 0.1549,0.0437 0.5736,0.4852 0.7439,0.7843 2.581,1.746 2.84,1.487 0.0717,-0.0717 -0.0221,-0.1303 -0.2083,-0.1303 -0.1863,0 -0.2772,-0.0614 -0.2022,-0.1365 0.2272,-0.2272 1.468,0.4464 1.305,0.7089 -0.091,0.1473 0.0759,0.1721 0.4208,0.0626 0.3533,-0.1121 0.5125,-0.0858 0.4169,0.0689 -0.2019,0.3266 1.134,0.588 2.187,0.4279 0.6147,-0.0935 0.6958,-0.069 0.3175,0.0957 -0.3318,0.1445 0.4609,0.2295 2.286,0.245 1.947,0.0166 2.64,-0.0499 2.286,-0.2191 z m -6.017,-0.4109 c 0.1834,-0.0734 0.4024,-0.0643 0.4868,0.02 0.0844,0.0844 -0.0656,0.1444 -0.3334,0.1334 -0.2959,-0.0122 -0.3561,-0.0724 -0.1535,-0.1534 z m -4.65,-1.602 c -0.089,-0.144 0.013,-0.1866 0.239,-0.0998 0.44,0.1688 0.5205,0.3509 0.1552,0.3509 -0.1315,0 -0.3088,-0.113 -0.3942,-0.2511 z m 23.91,-8.243 c -0.0951,-0.248 -0.0584,-0.358 0.0892,-0.2668 0.1381,0.0854 0.2511,0.0151 0.2511,-0.1561 0,-0.1712 0.0676,-0.2437 0.1503,-0.161 0.0827,0.0827 0.0425,0.3428 -0.0891,0.5781 -0.2223,0.3972 -0.251,0.3977 -0.4014,0.006 z m -32.66,-4.1 c 0.0122,-0.2959 0.0724,-0.3561 0.1535,-0.1535 0.0734,0.1834 0.0643,0.4024 -0.02,0.4868 -0.0844,0.0844 -0.1444,-0.0656 -0.1334,-0.3334 z m 6.941,-5.479 c -0.1116,-0.1806 -0.0697,-0.2243 0.1091,-0.1138 0.1876,0.116 0.237,0.0405 0.1396,-0.2133 -0.0829,-0.216 -0.253,-0.3295 -0.3781,-0.2522 -0.1251,0.0773 -0.2274,0.0195 -0.2274,-0.1285 0,-0.148 -0.147,-0.269 -0.3266,-0.269 -0.1796,0 -0.3268,-0.2 -0.327,-0.4445 -3.3e-4,-0.3704 0.2128,-0.4371 1.279,-0.4 1.19,0.0414 1.218,0.0295 0.3905,-0.1708 -0.6496,-0.1573 -0.3419,-0.1906 1.143,-0.1236 1.419,0.064 1.764,0.0298 1.143,-0.1133 -0.7117,-0.1641 -0.471,-0.2116 1.206,-0.2384 1.153,-0.0184 2.096,0.0275 2.096,0.102 0,0.0745 -0.3962,0.5317 -0.8805,1.016 -0.9053,0.9053 -2.194,1.2 -2.573,0.5873 -0.1199,-0.194 -0.0688,-0.2237 0.1513,-0.0878 0.2153,0.1331 0.271,0.1061 0.1581,-0.0767 -0.1969,-0.3186 -0.9201,-0.1254 -0.9201,0.2458 0,0.133 -0.1023,0.1786 -0.2274,0.1013 -0.1251,-0.0773 -0.2952,0.0362 -0.3781,0.2522 -0.0974,0.2538 -0.048,0.3293 0.1396,0.2133 0.1788,-0.1105 0.2207,-0.0668 0.1091,0.1138 -0.0997,0.1613 -0.5106,0.2932 -0.9132,0.2932 -0.4026,0 -0.8136,-0.132 -0.9133,-0.2932 z m 4.654,-0.8762 c -0.0844,-0.0844 -0.3035,-0.0934 -0.4868,-0.02 -0.2026,0.0811 -0.1424,0.1413 0.1535,0.1535 0.2678,0.011 0.4178,-0.049 0.3334,-0.1334 z m -11.34,-0.7567 c 0.0122,-0.2959 0.0724,-0.3561 0.1535,-0.1535 0.0734,0.1834 0.0644,0.4024 -0.02,0.4868 -0.0844,0.0844 -0.1444,-0.0656 -0.1334,-0.3334 z m 33.55,-0.1058 c 0,-0.3493 0.0577,-0.4921 0.1281,-0.3175 0.0705,0.1746 0.0705,0.4604 0,0.635 -0.0705,0.1746 -0.1281,0.0318 -0.1281,-0.3175 z m -10.05,-1.9651 c 0.0798,-0.6915 0.0405,-0.8505 -0.1418,-0.5749 -0.2192,0.3312 -0.2526,0.3265 -0.256,-0.03632 -0.004,-0.4678 0.6666,-0.8436 0.6855,-0.384 0.007,0.1613 0.1023,0.5121 0.2125,0.7794 0.1528,0.3706 0.1196,0.4362 -0.1399,0.2758 -0.2474,-0.1529 -0.2969,-0.0971 -0.1813,0.2042 0.0875,0.228 0.0582,0.4769 -0.0651,0.5531 -0.1233,0.0762 -0.1746,-0.2916 -0.1139,-0.8174 z m -1.886,0.1871 c 0,-0.3492 0.0577,-0.4921 0.1281,-0.3175 0.0705,0.1746 0.0705,0.4604 0,0.635 -0.0705,0.1746 -0.1281,0.0318 -0.1281,-0.3175 z m 0.488,-0.4022 c 0.0122,-0.2959 0.0724,-0.3561 0.1535,-0.1535 0.0734,0.1834 0.0643,0.4024 -0.02,0.4868 -0.0844,0.0844 -0.1444,-0.0656 -0.1334,-0.3334 z m 10.55,-0.2426 c -0.2451,-0.6387 -0.1728,-0.8035 0.1266,-0.2886 0.1482,0.255 0.216,0.5171 0.1506,0.5825 -0.0654,0.0654 -0.1902,-0.0668 -0.2773,-0.2938 z m -11.13,-9.943 c 0.1834,-0.07337 0.4024,-0.06435 0.4868,0.02005 0.0844,0.0844 -0.0656,0.1444 -0.3334,0.1334 -0.2959,-0.01219 -0.3561,-0.07238 -0.1535,-0.1535 z m -8.382,-0.254 c 0.1834,-0.07337 0.4024,-0.06435 0.4868,0.02005 0.0844,0.0844 -0.0656,0.1444 -0.3334,0.1334 -0.2959,-0.01219 -0.3561,-0.07238 -0.1535,-0.1535 z m 17.32,5.684 c 0,-0.04245 -0.4286,-0.4711 -0.9525,-0.9525 l -0.9525,-0.8753 0.8753,0.9525 c 0.8147,0.8866 1.03,1.069 1.03,0.8753 z m -5.715,-4.495 c -0.0863,-0.1397 -0.2931,-0.2522 -0.4595,-0.2501 -0.1818,0.0023 -0.1504,0.1022 0.0785,0.2501 0.488,0.3153 0.5759,0.3153 0.381,0 z m -7.308,-1.931 c -0.0844,-0.0844 -0.3035,-0.09343 -0.4868,-0.02005 -0.2026,0.08108 -0.1424,0.1413 0.1535,0.1535 0.2678,0.01103 0.4178,-0.049 0.3334,-0.1334 z m 2.926,-0.2688 c -0.1746,-0.07046 -0.4604,-0.07046 -0.635,0 -0.1746,0.07046 -0.0318,0.1281 0.3175,0.1281 0.3492,0 0.4921,-0.05765 0.3175,-0.1281 z m 14.67,35.62 c 0,-0.2013 0.1036,-0.4301 0.2303,-0.5084 0.1267,-0.0783 0.1705,0.0864 0.0974,0.366 -0.1551,0.5931 -0.3277,0.668 -0.3277,0.1423 z m 5.927,-0.0557 c 0,-0.2247 0.1313,-0.2426 0.4657,-0.0636 0.2561,0.1371 0.4657,0.2778 0.4657,0.3128 0,0.035 -0.2096,0.0636 -0.4657,0.0636 -0.2561,0 -0.4657,-0.1408 -0.4657,-0.3128 z m -36.95,-3.071 c -0.3159,-0.4029 -0.307,-0.4118 0.0959,-0.0959 0.2445,0.1917 0.4445,0.3918 0.4445,0.4445 0,0.209 -0.2086,0.0745 -0.5404,-0.3486 z m 24.42,0.3486 c 0,-0.0527 0.2,-0.2528 0.4445,-0.4445 0.4029,-0.316 0.4118,-0.307 0.0959,0.0959 -0.3318,0.4231 -0.5404,0.5576 -0.5404,0.3486 z m 1.778,-1.047 c 0.4739,-0.489 0.9188,-0.889 0.9886,-0.889 0.0699,0 -0.2607,0.4 -0.7346,0.889 -0.4739,0.489 -0.9188,0.889 -0.9886,0.889 -0.0699,0 0.2607,-0.4 0.7346,-0.889 z m 5.419,0.5192 c 0,-0.2034 0.0971,-0.3098 0.2158,-0.2364 0.1187,0.0734 0.15,0.2398 0.0697,0.3698 -0.2054,0.3323 -0.2855,0.2949 -0.2855,-0.1334 z m -32.24,-0.9637 -0.4839,-0.5715 0.5715,0.4839 c 0.5371,0.4547 0.6871,0.6591 0.4839,0.6591 -0.0482,0 -0.3054,-0.2572 -0.5715,-0.5715 z m -1.151,-0.635 c -0.3159,-0.4029 -0.307,-0.4118 0.0959,-0.0959 0.2445,0.1917 0.4445,0.3918 0.4445,0.4445 0,0.209 -0.2086,0.0745 -0.5404,-0.3486 z m 28.86,-0.5715 c 0.2528,-0.2794 0.5169,-0.508 0.5867,-0.508 0.0699,0 -0.0799,0.2286 -0.3327,0.508 -0.2529,0.2794 -0.5169,0.508 -0.5867,0.508 -0.0699,0 0.0799,-0.2286 0.3327,-0.508 z m 11.43,-1.286 c -2.411,-1.437 -2.737,-1.808 -2.104,-2.397 0.1874,-0.1743 0.2169,-0.1544 0.0939,0.0635 -0.0986,0.1746 -0.1194,0.3175 -0.0462,0.3175 0.0732,0 0.2628,-0.2424 0.4213,-0.5387 0.2324,-0.4343 0.2219,-0.5038 -0.0546,-0.359 -0.1886,0.0988 -0.0571,-0.0687 0.2922,-0.3724 0.3492,-0.3036 0.4934,-0.4791 0.3204,-0.3898 -0.2075,0.107 -0.2633,0.0285 -0.1639,-0.2305 0.0829,-0.216 0.2411,-0.3369 0.3515,-0.2686 0.1104,0.0683 0.2686,-0.0526 0.3515,-0.2686 0.0829,-0.216 0.0456,-0.3278 -0.0828,-0.2484 -0.1284,0.0794 -0.2936,0.0472 -0.3669,-0.0715 -0.0734,-0.1187 0.004,-0.2212 0.173,-0.2279 0.1685,-0.007 0.5349,-0.0936 0.8143,-0.1933 0.4192,-0.1495 0.4414,-0.1302 0.127,0.1104 -0.3217,0.2462 -0.3019,0.2772 0.127,0.1994 0.2794,-0.0507 0.4766,-0.2368 0.4382,-0.4135 -0.0384,-0.1767 0.0529,-0.2455 0.2028,-0.1528 0.1938,0.1198 0.1931,0.2644 -0.003,0.5002 -0.1514,0.1824 -0.232,0.7247 -0.179,1.205 0.0658,0.5966 -0.008,0.8734 -0.2339,0.8734 -0.1816,0 -0.2696,-0.1238 -0.1955,-0.2752 0.0741,-0.1514 -0.0478,-0.0499 -0.2708,0.2255 -0.223,0.2754 -0.3508,0.6432 -0.2839,0.8174 0.0668,0.1742 -0.005,0.3951 -0.1606,0.491 -0.1708,0.1056 -0.2107,0.0587 -0.1009,-0.1189 0.0997,-0.1613 0.1214,-0.2932 0.0482,-0.2932 -0.0732,0 -0.2517,0.2217 -0.3967,0.4926 -0.1883,0.3518 -0.1796,0.5445 0.0303,0.6742 0.1947,0.1204 0.2246,0.0695 0.0884,-0.1508 -0.137,-0.2217 -0.1064,-0.2712 0.0919,-0.1487 0.1636,0.1011 0.2326,0.2886 0.1534,0.4168 -0.0792,0.1281 0.195,0.1935 0.6094,0.1453 0.6169,-0.0718 0.7371,-0.003 0.6638,0.3777 -0.0727,0.3776 0.047,0.4495 0.635,0.381 0.6025,-0.0701 0.7085,-7.7e-4 0.6292,0.4111 -0.0688,0.3575 0.0115,0.4544 0.2887,0.3481 0.2112,-0.0811 0.3203,-0.0442 0.2423,0.082 -0.078,0.1262 0.002,0.2873 0.1773,0.358 0.1755,0.0708 0.2048,0.1318 0.0651,0.1356 -0.1397,0.004 -1.397,-0.6741 -2.794,-1.507 z m -4.759,-2.73 c -0.6616,-0.3757 -1.204,-0.7587 -1.206,-0.8512 -0.006,-0.2874 0.8522,-0.0583 0.9568,0.2553 0.0544,0.1633 0.2035,0.2323 0.3313,0.1533 0.1278,-0.079 0.2323,-0.0158 0.2323,0.1404 0,0.1562 0.1151,0.2128 0.2558,0.1259 0.1407,-0.087 0.3241,0.0199 0.4076,0.2376 0.0835,0.2176 0.2718,0.3215 0.4184,0.2308 0.1557,-0.0962 0.1912,-0.0428 0.0854,0.1285 -0.0997,0.1613 -0.2031,0.2863 -0.2297,0.2779 -0.0267,-0.008 -0.5898,-0.3228 -1.251,-0.6985 z m -39.7586,-7.922 c 0,-0.489 0.0523,-0.689 0.1162,-0.4445 0.0639,0.2445 0.0639,0.6445 0,0.889 -0.0639,0.2445 -0.1162,0.0444 -0.1162,-0.4445 z m 3.746,-11.2722 c 0,-0.05275 0.2,-0.2528 0.4445,-0.4445 0.4029,-0.3159 0.4118,-0.307 0.0959,0.0959 -0.3318,0.4231 -0.5404,0.5577 -0.5404,0.3486 z m 29.31,-0.7296 -0.4839,-0.5715 0.5715,0.4839 c 0.5371,0.4547 0.6871,0.6591 0.4839,0.6591 -0.0482,0 -0.3054,-0.2572 -0.5715,-0.5715 z m -29.06,-0.2864 c 0,-0.05274 0.2,-0.2528 0.4445,-0.4445 0.4029,-0.3159 0.4118,-0.307 0.0959,0.0959 -0.3318,0.4231 -0.5404,0.5577 -0.5404,0.3486 z m 28.43,-1.111 -0.8753,-0.9525 0.9525,0.8753 c 0.5239,0.4814 0.9525,0.9101 0.9525,0.9525 0,0.194 -0.2149,0.01124 -1.03,-0.8753 z m -26.66,-0.6674 c 0,-0.05274 0.2,-0.2528 0.4445,-0.4445 0.4029,-0.3159 0.4118,-0.307 0.0959,0.0959 -0.3318,0.4231 -0.5404,0.5577 -0.5404,0.3486 z m 12.39,-4.66 c 0.4565,-0.05653 1.142,-0.05536 1.524,0.0026 0.382,0.05796 0.008,0.1042 -0.83,0.1028 -0.8382,-0.0014 -1.15,-0.04885 -0.694,-0.1054 z m 0.2524,-0.5036 c 0.316,-0.06076 0.7732,-0.05845 1.016,0.0051 0.2428,0.06357 -0.0157,0.1133 -0.5745,0.1105 -0.5588,-0.0028 -0.7575,-0.05483 -0.4415,-0.1156 z"
         fill="#795500"
         id="path22"
         sodipodi:nodetypes="csccscccsscsscsccssscscccccccccccsssccccscsccccccscscccscccccscccscccsccssscccccccsccsccccsccccccccsccccccccccccscccssccscsscccscsccccccccsccsccccccscsscccscscccsccccscsccccsccccsccsccccccsccscccscccscccccscscsccsscssscccccccsscccsscsscsscccscsccccsccccsccsccccssccccccccscssccscccscccccccccccccccccccscccsccccccsccsccsssccccccscccccccccccscccccsccccccscsccscccssccccccccccccccccscccsscccccccccccsssccccccsscccsscccsccsccssccsccscsscccccccsccscsscccccccscccsccccsccccccccccsccccccccssccscccssssscsscsccsssssssscscccsccsscsscsscccsccscsssscccscscccssscccsscccccscccscccccccsscccccccsssssccscccscsccscccsccsccscsscccsc" />
    </g>
  </g>
</svg>
